<svg version="1.1" id="Layer_1" xmlns="http://www.w3.org/2000/svg" xmlns:xlink="http://www.w3.org/1999/xlink" x="0px" y="0px"
	 width="100%" viewBox="0 0 242 240" enable-background="new 0 0 242 240" xml:space="preserve">
<path fill="#FFFFFF" opacity="1.000000" stroke="none" 
	d="
M1.000000,90.000000 
	C1.000000,60.000004 1.000000,30.500011 1.000000,1.000008 
	C80.333313,1.000000 159.666672,1.028273 238.999786,0.903912 
	C242.424042,0.898545 243.101715,1.575549 243.096176,5.000095 
	C242.970993,82.333214 242.971024,159.666626 243.096161,236.999741 
	C243.101700,240.423920 242.424591,241.101639 238.999954,241.096161 
	C161.000168,240.971252 83.000084,240.971237 5.000299,241.096100 
	C1.576216,241.101593 0.892290,240.425568 0.902335,236.999863 
	C1.045527,188.166901 1.000000,139.333389 1.000000,90.000000 
z"/>
<path fill="#000000" opacity="1.000000" stroke="none" 
	d="
M7.504078,129.128296 
	C7.131074,95.265762 7.124899,61.611320 6.925283,27.958029 
	C6.900318,23.749121 9.579291,25.038509 11.553580,25.036211 
	C50.379326,24.991026 89.205139,25.006966 128.492157,25.079256 
	C129.239471,27.590227 127.190033,28.121006 125.689125,28.987814 
	C110.272133,37.891483 94.849129,46.784882 79.448936,55.717472 
	C77.494553,56.851078 75.113976,57.651779 74.536667,60.710621 
	C74.365555,73.583473 74.822899,86.056007 74.226151,98.922104 
	C73.138542,102.389336 70.997459,101.446693 69.431686,100.270920 
	C65.532379,97.342842 62.223454,98.529434 58.470085,100.734146 
	C42.146843,110.322296 25.828445,119.923454 8.909668,129.201660 
	C8.306655,129.316452 8.059157,129.326584 7.504078,129.128296 
z"/>
<path fill="#000000" opacity="1.000000" stroke="none" 
	d="
M131.010681,25.514240 
	C164.706299,25.098976 198.367081,25.111206 232.026642,24.913334 
	C235.754013,24.891422 234.988617,27.023100 234.989487,29.039083 
	C235.001770,57.370033 234.993622,85.700996 234.927383,114.494080 
	C233.540573,116.128433 232.345367,115.250793 231.238373,114.621490 
	C216.968109,106.509308 202.768311,98.274414 188.573761,90.030624 
	C187.553879,89.438309 186.716873,88.642296 186.062958,87.165787 
	C185.002716,78.431839 185.758942,70.053337 185.481400,61.294315 
	C185.609497,58.449131 183.817337,57.451180 182.081421,56.446671 
	C166.718369,47.556694 151.375854,38.631096 135.961502,29.829969 
	C134.100998,28.767673 132.056915,27.929276 131.010681,25.514240 
z"/>
<path fill="#000000" opacity="1.000000" stroke="none" 
	d="
M234.495270,181.899399 
	C234.891953,196.316910 234.805313,210.617691 235.088760,224.911102 
	C235.169785,228.996811 232.677170,227.980591 230.589935,227.981339 
	C176.042572,228.001114 121.495201,227.992401 66.486038,227.913712 
	C66.771698,224.574936 69.875626,223.929825 72.185471,222.616638 
	C86.489388,214.484619 100.591965,206.000534 114.963409,197.995819 
	C119.300301,195.580246 121.567932,192.777023 120.783432,187.764633 
	C120.580971,186.471024 120.752533,185.105896 121.404282,183.508347 
	C124.754501,181.819656 126.939461,184.150040 129.215439,185.473526 
	C144.237137,194.208679 159.319046,202.838531 174.386978,211.492950 
	C175.387222,212.067474 176.322052,212.787170 177.882721,212.809326 
	C194.648605,204.133942 210.417114,194.366577 226.514084,185.174255 
	C228.945572,183.785721 231.220047,182.041840 234.495270,181.899399 
z"/>
<path fill="#77B842" opacity="1.000000" stroke="none" 
	d="
M130.698730,25.089493 
	C143.752533,33.323826 157.123734,40.365799 170.099564,48.079033 
	C175.675613,51.393612 181.703598,53.999996 186.759583,58.609100 
	C184.846573,62.104557 181.326096,63.116096 178.370026,64.866989 
	C164.098358,73.320168 149.679611,81.521225 135.286575,89.765755 
	C133.855865,90.585281 132.496536,91.589706 130.421204,91.831360 
	C125.709351,90.923798 122.245621,88.216530 118.527542,86.073013 
	C104.859589,78.193321 91.158531,70.370941 77.519119,62.441914 
	C76.093079,61.612907 74.604980,60.817936 73.404175,59.108727 
	C78.617737,53.695023 85.525475,50.922955 91.769478,47.140709 
	C103.928497,39.775501 116.367439,32.872429 128.821915,25.463009 
	C129.419449,25.108923 129.885513,25.069780 130.698730,25.089493 
z"/>
<path fill="#A30B4F" opacity="1.000000" stroke="none" 
	d="
M234.909378,181.555420 
	C217.025101,192.301575 199.214630,202.588409 181.391678,212.853607 
	C180.549759,213.338531 179.597061,213.631073 178.338303,214.093109 
	C176.051697,211.912811 176.455963,209.156754 176.440750,206.530716 
	C176.332764,187.883957 176.568192,169.236298 176.311554,150.160416 
	C176.334518,147.707962 177.883942,146.979309 179.330429,146.164825 
	C196.052490,136.748947 212.575073,126.986183 229.244232,117.478508 
	C230.801849,116.590080 232.286285,115.406654 234.559845,115.810730 
	C234.898712,137.725906 234.939713,159.408890 234.909378,181.555420 
z"/>
<path fill="#062C5A" opacity="1.000000" stroke="none" 
	d="
M7.129133,129.390656 
	C7.196496,128.919846 7.486142,128.886322 7.631713,128.894318 
	C15.097566,132.132599 21.781984,136.519867 28.704176,140.468109 
	C39.260750,146.489319 49.777744,152.580826 60.300968,158.660736 
	C62.161251,159.735550 64.172661,160.694748 65.110542,163.351898 
	C65.980835,183.751770 65.486183,203.743088 65.491051,223.732101 
	C65.491333,224.904312 65.250549,226.052094 64.350250,227.472046 
	C63.585773,227.896362 63.119183,227.939590 62.307030,227.910645 
	C53.282127,224.350250 45.579075,219.052170 37.485653,214.493973 
	C28.507242,209.437332 19.670736,204.124023 10.661193,199.115509 
	C9.488613,198.463654 8.403436,197.705719 7.400537,196.296921 
	C7.129494,173.969986 7.095632,151.915726 7.129133,129.390656 
z"/>
<path fill="#0B4FA2" opacity="1.000000" stroke="none" 
	d="
M64.378036,227.926575 
	C64.041702,206.237885 64.031036,184.622635 63.982185,162.545197 
	C67.990173,157.999649 73.410446,156.085587 78.166664,153.127136 
	C85.488174,148.573074 93.141876,144.571152 100.777588,139.799438 
	C108.794098,142.723312 116.240288,146.177185 122.120102,152.793533 
	C122.794312,162.857529 122.462433,172.519714 122.323097,182.605072 
	C123.886803,192.453094 119.501846,197.480225 111.168297,201.729294 
	C95.876625,209.526123 81.276794,218.679855 66.206390,227.553360 
	C65.584061,227.892548 65.143883,227.946289 64.378036,227.926575 
z"/>
<path fill="#B84277" opacity="1.000000" stroke="none" 
	d="
M234.916382,115.771576 
	C221.339859,123.742470 207.863113,131.515579 194.284027,139.105591 
	C188.809753,142.165436 183.647308,145.819504 177.360046,148.108063 
	C170.766937,146.943008 165.384613,144.302567 161.569977,138.687592 
	C164.424240,134.254059 169.090637,132.915176 173.013641,130.582489 
	C188.064331,121.633118 185.201462,125.148529 185.655334,108.753304 
	C185.841949,102.012093 184.653046,95.202454 186.822266,88.259903 
	C202.809448,96.984222 218.482056,105.979485 234.509506,114.965469 
	C234.901245,115.137558 234.938141,115.318909 234.916382,115.771576 
z"/>
<path fill="#000000" opacity="1.000000" stroke="none" 
	d="
M7.087479,196.486389 
	C19.278740,202.049149 30.689272,209.321808 42.445797,215.981720 
	C48.901592,219.638855 55.248886,223.487518 61.803288,227.544159 
	C44.730412,227.892288 27.498896,227.896408 10.268784,228.054047 
	C7.719063,228.077362 6.887090,227.451981 6.935894,224.788635 
	C7.105892,215.511246 7.007786,206.228958 7.087479,196.486389 
z"/>
<path fill="#2C5A07" opacity="1.000000" stroke="none" 
	d="
M121.421799,152.337006 
	C114.661217,148.136368 108.181549,144.268921 101.383110,140.306488 
	C100.046463,140.568665 99.070740,140.349365 98.186142,139.855927 
	C90.347145,135.483215 82.475876,131.165100 74.892426,126.351547 
	C73.106400,125.217888 71.836472,123.649994 71.817001,121.498566 
	C71.757065,114.877556 70.945732,108.230888 72.623947,101.339279 
	C72.960197,87.274902 73.012733,73.518661 73.133293,59.282600 
	C89.590355,68.172821 105.978523,77.544395 122.369431,86.911171 
	C124.671028,88.226440 126.986008,89.518303 129.613052,90.961632 
	C131.204269,92.368240 131.515671,94.001205 131.514801,95.676003 
	C131.504852,115.047005 131.917892,134.419739 131.188568,154.238159 
	C128.001587,157.351547 126.388313,157.004227 121.421799,152.337006 
z"/>
<path fill="#3175C0" opacity="1.000000" stroke="none" 
	d="
M72.592148,100.898270 
	C73.005234,106.825798 73.335777,112.629181 73.118828,118.412025 
	C72.973145,122.295296 73.935631,124.729263 77.657364,126.669792 
	C85.430382,130.722717 92.881836,135.392334 100.764862,140.010071 
	C100.045647,143.168335 96.982796,143.392120 94.807518,144.676620 
	C84.834610,150.565613 74.724472,156.222198 64.303802,162.022629 
	C45.277405,151.314117 26.353357,140.987396 7.925256,129.228485 
	C24.834148,118.940010 42.047688,109.232010 58.860268,98.873245 
	C64.508675,95.393074 68.153069,97.749619 72.592148,100.898270 
z"/>
<path fill="#4FA20B" opacity="1.000000" stroke="none" 
	d="
M130.309570,156.249115 
	C129.999374,134.701462 129.995911,113.359993 129.961884,91.560394 
	C141.772736,84.412193 153.627319,77.745262 165.450592,71.023270 
	C172.376968,67.085358 179.253433,63.059685 186.490326,59.006874 
	C186.895340,68.312775 186.962372,77.685287 187.083099,87.523384 
	C187.078629,98.312584 186.795303,108.642342 187.076584,118.956696 
	C187.184296,122.906631 185.779175,124.976379 182.478638,126.757195 
	C175.598557,130.469376 168.909576,134.535751 161.910080,138.725433 
	C159.713943,141.847000 156.489517,142.960739 153.714005,144.655304 
	C147.953705,148.172226 142.020691,151.399094 136.144897,154.719818 
	C134.461502,155.671204 132.763351,156.856705 130.309570,156.249115 
z"/>
<path fill="#5A062C" opacity="1.000000" stroke="none" 
	d="
M129.643402,156.020264 
	C138.028214,153.368896 144.623154,148.025787 152.039764,144.212311 
	C155.103378,142.637054 158.039398,140.813644 161.355774,139.048676 
	C166.133774,142.662857 171.449402,144.905853 176.667831,147.995697 
	C178.255951,149.912537 177.976242,151.944901 177.976761,153.921875 
	C177.981812,173.682709 177.979858,193.443558 177.980255,213.688690 
	C171.667709,212.387344 166.519104,208.329987 160.903900,205.227463 
	C148.074219,198.138840 135.466171,190.649078 122.463898,183.176788 
	C120.579422,180.997314 121.064964,178.606705 121.056618,176.325577 
	C121.028091,168.529999 121.058281,160.734222 121.103485,152.471161 
	C123.855247,153.335068 126.569611,154.666336 129.643402,156.020264 
z"/>
</svg>